<svg width="163" height="166" viewBox="0 0 163 166" fill="none" xmlns="http://www.w3.org/2000/svg">
<path d="M81.5 165.9C61.6 165.9 41.7 165.9 21.9 165.9C11.6 165.9 3.30001 159.1 1.00001 149.1C0.700008 147.7 0.600006 146.2 0.600006 144.8C0.600006 117.1 0.600006 89.3 0.600006 61.6C0.600006 49.2 11.1 38.5 23.5 38.4C62.2 38.3 100.9 38.4 139.6 38.4C152 38.4 162.8 50 162.7 61.4C162.4 89.2 162.6 117.1 162.6 144.9C162.6 156.4 153.3 165.9 141.8 165.9C121.7 166 101.6 165.9 81.5 165.9Z" fill="#1F97D1"/>
<path d="M9.10001 34.1C15.1 28.9 22.1 25.4 29.7 23.3C55.2 16.1 80.8 9.2 106.3 2.2C110.2 1.1 114.2 0.0999977 118.3 -2.32994e-06C126.7 -0.100002 131.1 3.9 131.6 12.3C131.9 17.8 131.7 23.4 131.8 28.9C131.8 30.3 131.4 30.9 130 30.8C129.2 30.7 128.4 30.8 127.7 30.8C94.6 30.8 61.5 30.8 28.5 30.8C21.7 30.7 15.2 31 9.10001 34.1Z" fill="#1F97D1"/>
<path d="M94.4 86.2C94.6 86.7 94.8 87.3 95 87.8C95.5 88.8 95.6 89.6 94.6 90.3C93.6 91 92.6 90.6 92.1 89.7C85.5 79.3 75.6 77.9 64.6 79.6C64.4 79.6 64.2 79.6 64 79.6C70.4 74.3 86.4 71.5 98.7 84.8C95.9 75.7 80 67.7 63.5 73.4C60.9 75.4 57.7 76.5 55.1 78.5C49.9 82.6 47.2 86.1 43.9 93C46.2 87.1 51 81.9 57.1 77.9C58.3 77.1 59.6 75.9 61.3 76.7C59 79 56.5 81.2 54.4 83.7C39.7 100.4 39.1 120.5 52.7 138.2C53.4 139.1 54.1 140 54.9 141C53.8 141.6 53.4 140.7 52.9 140.3C43.6 132.4 37.2 122.7 34.7 110.7C32.5 99.6 36.4 89.9 42.7 81C53.8 65.5 74.7 61.1 90.8 70.5C101.3 76.6 105.6 87.8 101.5 98.2C101 99.4 100.6 100.5 99.3 101.8C99 95.8 98.7 90.2 95 85.5C93.5 84.5 92.8 82.6 91.4 82C92.5 83 93.9 84.2 94.4 86.2Z" fill="#FAFCFD"/>
<path d="M119.5 114.1C115.9 119.2 111.5 123.4 105.7 126.1C114.7 117.4 122 107.8 122.8 94.7C123.6 81.7 118.3 71 109.8 61.4C111.8 61.8 113.1 63.1 114.3 64.3C122.9 72.2 129.1 81.4 131.3 93C135.1 112.9 118 135.6 97.8 137.5C86.8 138.5 77 136 69.1 128C62.3 121 61.3 110 66.8 101.9C67 106.8 67.2 111.3 69.4 115.3C71.3 117 72.2 119.7 74.1 121C72.6 119.2 70 117.6 70.8 114.2C72 112.9 73.3 112.9 74.2 114.3C81 124.4 90.7 125.7 101.7 123.6C102 123.5 102.3 123.6 102.6 123.6C102.7 123.6 102.7 123.7 102.8 123.7C94.9 129.5 79.6 131.7 67.4 119C69 125.1 78.3 131.3 88 132C100.8 132.9 113.6 127.8 120.1 115.4C120.5 113.2 121.9 111.5 122.5 109.5C121.6 111 121.2 113 119.5 114.1Z" fill="#FCFEFE"/>
<path d="M69.3 90.2C70.6 91.4 70.6 92.6 69.2 93.6C58.7 100.9 58.2 111.2 60.4 122.3C54.1 114.7 51.5 98.8 64.9 86.5C53.6 90.6 47.8 108.7 54.7 124C55.1 124.5 55.7 125 56 125.6C60 133.5 66.8 138.3 72.2 140.7C67.5 138.7 61.8 133.9 57.8 127.2C57.2 126.3 56.2 125.3 57.1 124.1C62.3 129.8 67.9 134.9 75 138.2C89.1 144.8 102.5 142.6 115.2 134.4C117.8 132.7 120.1 130.6 123 128.1C120.8 132.7 117.8 135.6 114.6 138.4C105.7 146 95.9 151.7 83.7 151C64.6 149.8 45.1 134.3 46.1 111.4C46.5 101 50 91.8 59.3 85.9C66.1 81.5 75.7 81.7 81.3 86.2C76.6 86.5 72.1 86.7 68.1 89.1C66.4 91.2 63.5 91.9 62.3 94C64.3 92.4 65.7 89.3 69.3 90.2Z" fill="#FBFEFD"/>
<path d="M97.9 114.1C97 114 95.8 115.1 95.1 113.6C94.5 112.1 95.3 111.3 96.4 110.5C104.6 104.8 106.7 96.7 105.6 87.3C105.4 85.7 105.5 84 104.8 82.5C111.3 90.6 113 106 100.4 118C106.3 116.6 112.9 106.7 113.4 97.1C114.3 82.3 106.8 69.4 94.4 64.1C92.4 63.8 90.6 62.8 89.4 62.4C88.4 62.1 88.5 62.8 88.6 62.4C88.6 62.3 88.7 62.3 88.7 62.3C90.5 62.9 92.3 63.3 93.7 64.7C99.5 68.5 104.5 73 107.6 79.6C87.5 58.4 66.1 56.6 43.3 74.9C42.9 74.2 43.5 73.8 43.8 73.4C51.4 63.9 60.8 57 72.8 54.3C84.8 51.6 95.4 55.5 104.8 62.8C113.5 69.5 118.6 78.6 119 89.6C119.5 101.1 116.2 111.3 106.4 118.4C99 123.6 87.8 122.6 83.4 118.2C88.6 118.4 93.4 117.7 97.7 115.3C99 113.7 101 112.8 102.1 111.3C102.6 110.8 102.1 110.6 102.4 110.9C102.4 110.9 102.4 111 102.3 111.1C101 112.1 100.1 114 97.9 114.1Z" fill="#FBFDFD"/>
<path d="M61.3 76.8C53.5 79.9 48.5 85.9 44.4 92.8C43.9 93.7 43.4 94.7 42.9 95.7C43.6 87.2 53.2 76.9 63.5 73.5C61.9 73.9 63.6 76.7 61.3 76.8Z" fill="#3795C2"/>
<path d="M57.1 124C59.8 131 65.7 136.5 76.4 142.2C68.8 142 57.7 132.6 54.7 124C55.5 124.8 56.3 123.7 57.1 124Z" fill="#3896C1"/>
<path d="M69.3 90.2C67.4 90.1 66 91.3 64.7 92.4C63.3 93.4 62.2 94.7 60.8 95.7C62.3 92.5 64.8 90.3 68.1 89C68.5 89.3 68.9 89.8 69.3 90.2Z" fill="#60A1C1"/>
<path d="M70.9 114.1C71.2 117.8 74 119.9 75.9 122.6C73 120.8 70.6 118.6 69.4 115.2C70.3 115.3 70.4 114.5 70.9 114.1Z" fill="#599CBB"/>
<path d="M97.9 114.1C99.9 112.5 102.3 111.2 104.1 109.3C102.7 111.9 100.7 114 97.9 115.3C97.9 114.8 97.9 114.4 97.9 114.1Z" fill="#5EA1C0"/>
<path d="M94.4 86.2C92.8 84.3 91.3 82.3 89.6 80.6C91.9 81.7 94 83.1 95 85.6C94.7 85.8 94.5 86 94.4 86.2Z" fill="#6BA8C4"/>
<path d="M119.5 114.1C120.5 112.2 121.6 110.3 122.6 108.4C122.6 111.1 121.5 113.2 120.1 115.3C119.8 114.9 119.6 114.5 119.5 114.1Z" fill="#619FBC"/>
<path d="M93.8 64.6C92 63.8 90.1 63 88.3 62.1C90.5 62.1 92.7 62.5 94.4 63.9C94.2 64.2 94 64.4 93.8 64.6Z" fill="#77AAC0"/>
</svg>
